<?xml version="1.0" encoding="UTF-8" standalone="no"?>
<!-- Created with Inkscape (http://www.inkscape.org/) -->

<svg
   width="1000"
   height="1000"
   viewBox="0 0 264.58333 264.58333"
   version="1.1"
   id="svg5"
   xmlns="http://www.w3.org/2000/svg"
   xmlns:svg="http://www.w3.org/2000/svg">
  <defs
     id="defs2" />
  <g
     id="layer1">
    <path
       id="path236-3"
       style="fill:none;stroke:#000000;stroke-width:0.264583;fill-opacity:1"
       d="M 217.09053,195.93252 A 105.83334,105.83334 0 0 1 98.956434,232.83465 105.83334,105.83334 0 0 1 26.590622,132.43236 105.83334,105.83334 0 0 1 98.956433,32.030063 105.83334,105.83334 0 0 1 217.09053,68.932199 m -3.9e-4,126.992871 a 79.375,79.375 0 0 1 -106.34265,-10.08979 79.375,79.375 0 0 1 0,-106.820246 79.375,79.375 0 0 1 106.34265,-10.089792" />
    <circle
       style="fill:#5540bf;fill-opacity:1;stroke:none;stroke-width:0.264583;stroke-dasharray:none;stroke-opacity:1"
       id="path20680"
       cx="169.41594"
       cy="132.63953"
       r="63.5" />
    <path
       style="fill:#5540bf;fill-opacity:1;stroke:#5540bf;stroke-width:1.18911;stroke-dasharray:none;stroke-opacity:1"
       d="M 475.64393,898.82735 C 418.44302,894.22145 369.98471,880.86821 321.05966,856.22992 281.54731,836.33178 249.49371,813.21341 218.7832,782.46391 89.779187,653.29615 64.58368,453.85544 157.50983,297.44078 231.69848,172.56538 367.98974,97.422121 511.91178,102.0437 c 115.57587,3.71133 220.29995,54.69707 295.37319,143.80476 3.16827,3.76056 5.45836,6.83738 5.08908,6.83738 -0.36927,0 -5.6515,-3.22263 -11.73826,-7.16139 -13.41542,-8.68116 -37.79824,-20.79912 -53.66891,-26.67281 -57.90296,-21.42971 -117.95678,-25.07469 -177.70266,-10.78571 -90.64787,21.67959 -168.0643,86.71409 -204.60976,171.8846 -24.45127,56.98455 -31.18422,117.74627 -19.66757,177.4905 23.30014,120.87282 118.1814,215.8473 238.27149,238.5056 39.13568,7.38401 83.60498,6.9832 120.69464,-1.08788 33.6303,-7.31828 68.18158,-21.42697 97.28454,-39.7252 5.76375,-3.6239 10.74973,-6.58891 11.07998,-6.58891 1.32469,0 -17.94477,21.62326 -30.57928,34.3146 -62.53972,62.82099 -145.5662,102.99747 -235.20573,113.81594 -14.6183,1.76426 -58.97993,3.11108 -70.8886,2.15217 z"
       id="path20884"
       transform="scale(0.26458333)" />
  </g>
</svg>
