<?xml version="1.0" encoding="UTF-8" standalone="no"?>
<!-- Created with Inkscape (http://www.inkscape.org/) -->

<svg
   width="1040"
   height="1040"
   viewBox="0 0 275.16668 275.16666"
   version="1.1"
   id="svg5"
   sodipodi:docname="logo3.svg"
   inkscape:export-filename="logo6.png"
   inkscape:export-xdpi="96"
   inkscape:export-ydpi="96"
   xmlns:inkscape="http://www.inkscape.org/namespaces/inkscape"
   xmlns:sodipodi="http://sodipodi.sourceforge.net/DTD/sodipodi-0.dtd"
   xmlns="http://www.w3.org/2000/svg"
   xmlns:svg="http://www.w3.org/2000/svg">
  <sodipodi:namedview
     id="namedview3473"
     pagecolor="#ffffff"
     bordercolor="#000000"
     borderopacity="0.25"
     inkscape:showpageshadow="2"
     inkscape:pageopacity="0.0"
     inkscape:pagecheckerboard="0"
     inkscape:deskcolor="#d1d1d1"
     showgrid="true">
    <inkscape:grid
       type="xygrid"
       id="grid3592"
       originx="0"
       originy="0" />
  </sodipodi:namedview>
  <defs
     id="defs2" />
  <g
     id="layer1">
    <rect
       style="fill:#000000;stroke-width:0.198644"
       id="rect117-6-3-0"
       width="21.166666"
       height="21.166666"
       x="148.1667"
       y="63.500008"
       transform="matrix(0,1,1,0,0,0)" />
    <rect
       style="fill:#000000;stroke-width:0.198644"
       id="rect117-6-3-2-6"
       width="21.166666"
       height="21.166666"
       x="127.00001"
       y="63.500008"
       transform="matrix(0,1,1,0,0,0)" />
    <rect
       style="fill:#000000;stroke-width:0.198644"
       id="rect117-6-3-7-3"
       width="21.166666"
       height="21.166666"
       x="105.83334"
       y="63.500008"
       transform="matrix(0,1,1,0,0,0)" />
    <rect
       style="fill:#000000;stroke-width:0.198644"
       id="rect117-6-3-2-0-20"
       width="21.166666"
       height="21.166666"
       x="105.83334"
       y="84.666687"
       transform="matrix(0,1,1,0,0,0)" />
    <rect
       style="fill:#000000;stroke-width:0.198644"
       id="rect117-6-3-6-55"
       width="21.166666"
       height="21.166666"
       x="148.16669"
       y="105.83334"
       transform="matrix(0,1,1,0,0,0)" />
    <rect
       style="fill:#000000;stroke-width:0.198644"
       id="rect117-6-3-2-06-4"
       width="21.166666"
       height="21.166666"
       x="127.00001"
       y="105.83334"
       transform="matrix(0,1,1,0,0,0)" />
    <rect
       style="fill:#000000;stroke-width:0.198644"
       id="rect117-6-3-7-2-7"
       width="21.166666"
       height="21.166666"
       x="105.83331"
       y="105.83334"
       transform="matrix(0,1,1,0,0,0)" />
    <rect
       style="fill:#000000;stroke-width:0.198644"
       id="rect117-6-3-7-7-6"
       width="21.166666"
       height="21.166666"
       x="169.33334"
       y="105.83334"
       transform="matrix(0,1,1,0,0,0)" />
    <rect
       style="fill:#000000;stroke-width:0.198644"
       id="rect117-6-3-6-5-5"
       width="21.166666"
       height="21.166666"
       x="-169.33331"
       y="-42.333336"
       transform="matrix(0,-1,-1,0,0,0)" />
    <rect
       style="fill:#000000;stroke-width:0.198644"
       id="rect117-6-3-2-8-8-4"
       width="21.166666"
       height="21.166666"
       x="-126.99998"
       y="-42.333336"
       transform="matrix(0,-1,-1,0,0,0)" />
    <rect
       style="fill:#000000;stroke-width:0.198644"
       id="rect117-6-3-7-7-9-3"
       width="21.166666"
       height="21.166666"
       x="-148.16667"
       y="-42.333336"
       transform="matrix(0,-1,-1,0,0,0)" />
    <rect
       style="fill:#000000;stroke-width:0.198644"
       id="rect117-6-3-2-8-5-64"
       width="21.166666"
       height="21.166666"
       x="84.66671"
       y="21.166698"
       transform="matrix(0,1,1,0,0,0)" />
    <rect
       style="fill:#000000;stroke-width:0.198644"
       id="rect117-6-3-7-3-6-9"
       width="21.166666"
       height="21.166666"
       x="63.500038"
       y="63.500023"
       transform="matrix(0,1,1,0,0,0)" />
    <rect
       style="fill:#000000;stroke-width:0.198644"
       id="rect117-6-3-2-0-20-2-3"
       width="21.166666"
       height="21.166666"
       x="63.500038"
       y="84.666672"
       transform="matrix(0,1,1,0,0,0)" />
    <rect
       style="fill:#000000;stroke-width:0.198644"
       id="rect117-6-3-7-9-6-9-6"
       width="21.166666"
       height="21.166666"
       x="63.500038"
       y="105.83334"
       transform="matrix(0,1,1,0,0,0)" />
    <rect
       style="fill:#000000;stroke-width:0.198644"
       id="rect117-6-3-2-0-3-1-1-0"
       width="21.166666"
       height="21.166666"
       x="63.500038"
       y="127.00002"
       transform="matrix(0,1,1,0,0,0)" />
    <rect
       style="fill:#000000;stroke-width:0.198644"
       id="rect117-6-3-7-3-6-7-2"
       width="21.166666"
       height="21.166666"
       x="63.500038"
       y="21.166683"
       transform="matrix(0,1,1,0,0,0)" />
    <rect
       style="fill:#000000;stroke-width:0.198644"
       id="rect117-6-3-2-0-20-2-0-6"
       width="21.166666"
       height="21.166666"
       x="63.500038"
       y="42.333336"
       transform="matrix(0,1,1,0,0,0)" />
    <rect
       style="fill:#000000;stroke-width:0.198644"
       id="rect117-6-3-7-3-6-9-3"
       width="21.166666"
       height="21.166666"
       x="190.5"
       y="63.500008"
       transform="matrix(0,1,1,0,0,0)" />
    <rect
       style="fill:#000000;stroke-width:0.198644"
       id="rect117-6-3-2-0-20-2-3-6"
       width="21.166666"
       height="21.166666"
       x="190.5"
       y="84.666656"
       transform="matrix(0,1,1,0,0,0)" />
    <rect
       style="fill:#000000;stroke-width:0.198644"
       id="rect117-6-3-7-9-6-9-6-1"
       width="21.166666"
       height="21.166666"
       x="190.5"
       y="105.83331"
       transform="matrix(0,1,1,0,0,0)" />
    <rect
       style="fill:#000000;stroke-width:0.198644"
       id="rect117-6-3-7-3-6-7-2-9"
       width="21.166666"
       height="21.166666"
       x="190.5"
       y="21.166666"
       transform="matrix(0,1,1,0,0,0)" />
    <rect
       style="fill:#000000;stroke-width:0.198644"
       id="rect117-6-3-2-0-20-2-0-6-3"
       width="21.166666"
       height="21.166666"
       x="190.5"
       y="42.333321"
       transform="matrix(0,1,1,0,0,0)" />
    <rect
       style="fill:#000000;stroke-width:0.198644"
       id="rect117-6-3-7-3-6-9-5"
       width="21.166666"
       height="21.166666"
       x="232.83336"
       y="63.500008"
       transform="matrix(0,1,1,0,0,0)" />
    <rect
       style="fill:#000000;stroke-width:0.198644"
       id="rect117-6-3-2-0-20-2-3-03"
       width="21.166666"
       height="21.166666"
       x="232.83336"
       y="84.666656"
       transform="matrix(0,1,1,0,0,0)" />
    <rect
       style="fill:#000000;stroke-width:0.198644"
       id="rect117-6-3-7-9-6-9-6-6"
       width="21.166666"
       height="21.166666"
       x="232.83336"
       y="105.83334"
       transform="matrix(0,1,1,0,0,0)" />
    <rect
       style="fill:#000000;stroke-width:0.198644"
       id="rect117-6-3-2-0-3-1-1-0-1"
       width="21.166666"
       height="21.166666"
       x="232.83336"
       y="127.00002"
       transform="matrix(0,1,1,0,0,0)" />
    <rect
       style="fill:#000000;stroke-width:0.198644"
       id="rect117-6-3-7-2-7-2-6-0"
       width="21.166666"
       height="21.166666"
       x="232.83333"
       y="148.16667"
       transform="matrix(0,1,1,0,0,0)" />
    <rect
       style="fill:#000000;stroke-width:0.198644"
       id="rect117-6-3-7-3-6-7-2-6"
       width="21.166666"
       height="21.166666"
       x="232.83336"
       y="21.166666"
       transform="matrix(0,1,1,0,0,0)" />
    <rect
       style="fill:#000000;stroke-width:0.198644"
       id="rect117-6-3-2-0-20-2-0-6-32"
       width="21.166666"
       height="21.166666"
       x="232.83336"
       y="42.333321"
       transform="matrix(0,1,1,0,0,0)" />
    <rect
       style="fill:#000000;stroke-width:0.198644"
       id="rect117-6-3-7-9-6-9-6-2-1"
       width="21.166666"
       height="21.166666"
       x="232.83339"
       y="-254"
       transform="rotate(90)" />
    <rect
       style="fill:#000000;stroke-width:0.198644"
       id="rect117-6-3-2-0-3-1-1-0-3-5"
       width="21.166666"
       height="21.166666"
       x="232.83339"
       y="-232.83331"
       transform="rotate(90)" />
    <rect
       style="fill:#000000;stroke-width:0.198644"
       id="rect117-6-3-7-2-7-2-6-7-5"
       width="21.166666"
       height="21.166666"
       x="232.83336"
       y="-211.66666"
       transform="rotate(90)" />
    <rect
       style="fill:#000000;stroke-width:0.198644"
       id="rect117-6-3-7-2-7-2-6-2-6"
       width="21.166666"
       height="21.166666"
       x="232.83333"
       y="169.33333"
       transform="matrix(0,1,1,0,0,0)" />
    <rect
       style="fill:#000000;stroke-width:0.198644"
       id="rect117-6-3-7-3-6-9-56"
       width="21.166666"
       height="21.166666"
       x="21.166697"
       y="63.500023"
       transform="matrix(0,1,1,0,0,0)" />
    <rect
       style="fill:#000000;stroke-width:0.198644"
       id="rect117-6-3-2-0-20-2-3-93"
       width="21.166666"
       height="21.166666"
       x="21.166697"
       y="84.666672"
       transform="matrix(0,1,1,0,0,0)" />
    <rect
       style="fill:#000000;stroke-width:0.198644"
       id="rect117-6-3-7-9-6-9-6-7"
       width="21.166666"
       height="21.166666"
       x="21.166697"
       y="105.83334"
       transform="matrix(0,1,1,0,0,0)" />
    <rect
       style="fill:#000000;stroke-width:0.198644"
       id="rect117-6-3-2-0-3-1-1-0-4"
       width="21.166666"
       height="21.166666"
       x="21.166697"
       y="127.00005"
       transform="matrix(0,1,1,0,0,0)" />
    <rect
       style="fill:#000000;stroke-width:0.198644"
       id="rect117-6-3-7-2-7-2-6-5"
       width="21.166666"
       height="21.166666"
       x="21.166666"
       y="148.16667"
       transform="matrix(0,1,1,0,0,0)" />
    <rect
       style="fill:#000000;stroke-width:0.198644"
       id="rect117-6-3-7-3-6-7-2-2"
       width="21.166666"
       height="21.166666"
       x="21.166697"
       y="21.166683"
       transform="matrix(0,1,1,0,0,0)" />
    <rect
       style="fill:#000000;stroke-width:0.198644"
       id="rect117-6-3-2-0-20-2-0-6-5"
       width="21.166666"
       height="21.166666"
       x="21.166697"
       y="42.333336"
       transform="matrix(0,1,1,0,0,0)" />
    <rect
       style="fill:#000000;stroke-width:0.198644"
       id="rect117-6-3-7-9-6-9-6-2-4"
       width="21.166666"
       height="21.166666"
       x="21.166697"
       y="-254.00002"
       transform="rotate(90)" />
    <rect
       style="fill:#000000;stroke-width:0.198644"
       id="rect117-6-3-2-0-3-1-1-0-3-4"
       width="21.166666"
       height="21.166666"
       x="21.166697"
       y="-232.8333"
       transform="rotate(90)" />
    <rect
       style="fill:#000000;stroke-width:0.198644"
       id="rect117-6-3-7-2-7-2-6-7-3"
       width="21.166666"
       height="21.166666"
       x="21.166666"
       y="-211.66666"
       transform="rotate(90)" />
    <rect
       style="fill:#000000;stroke-width:0.198644"
       id="rect117-6-3-7-2-7-2-6-2-68"
       width="21.166666"
       height="21.166666"
       x="21.166666"
       y="169.33333"
       transform="matrix(0,1,1,0,0,0)" />
    <rect
       style="fill:#000000;stroke-width:0.198644"
       id="rect117-6-3-7-9-3-5-2"
       width="21.166666"
       height="21.166666"
       x="-169.33333"
       y="-63.499996"
       transform="matrix(0,-1,-1,0,0,0)" />
    <rect
       style="fill:#000000;stroke-width:0.198644"
       id="rect117-6-3-0-4"
       width="21.166666"
       height="21.166666"
       x="148.16666"
       y="-211.66664"
       transform="rotate(90)" />
    <rect
       style="fill:#000000;stroke-width:0.198644"
       id="rect117-6-3-2-6-0"
       width="21.166666"
       height="21.166666"
       x="126.99997"
       y="-211.66664"
       transform="rotate(90)" />
    <rect
       style="fill:#000000;stroke-width:0.198644"
       id="rect117-6-3-7-3-6"
       width="21.166666"
       height="21.166666"
       x="105.8333"
       y="-211.66664"
       transform="rotate(90)" />
    <rect
       style="fill:#000000;stroke-width:0.198644"
       id="rect117-6-3-2-0-20-2"
       width="21.166666"
       height="21.166666"
       x="105.8333"
       y="-190.49997"
       transform="rotate(90)" />
    <rect
       style="fill:#000000;stroke-width:0.198644"
       id="rect117-6-3-6-55-9"
       width="21.166666"
       height="21.166666"
       x="148.16664"
       y="-169.33333"
       transform="rotate(90)" />
    <rect
       style="fill:#000000;stroke-width:0.198644"
       id="rect117-6-3-2-06-4-9"
       width="21.166666"
       height="21.166666"
       x="126.99997"
       y="-169.33333"
       transform="rotate(90)" />
    <rect
       style="fill:#000000;stroke-width:0.198644"
       id="rect117-6-3-7-2-7-0"
       width="21.166666"
       height="21.166666"
       x="105.83329"
       y="-169.33333"
       transform="rotate(90)" />
    <rect
       style="fill:#000000;stroke-width:0.198644"
       id="rect117-6-3-7-7-6-8"
       width="21.166666"
       height="21.166666"
       x="169.3333"
       y="-169.33333"
       transform="rotate(90)" />
    <rect
       style="fill:#000000;stroke-width:0.198644"
       id="rect117-6-3-6-5-5-1"
       width="21.166666"
       height="21.166666"
       x="-169.33327"
       y="232.83331"
       transform="rotate(-90)" />
    <rect
       style="fill:#000000;stroke-width:0.198644"
       id="rect117-6-3-2-8-8-4-3"
       width="21.166666"
       height="21.166666"
       x="-126.99989"
       y="232.83331"
       transform="rotate(-90)" />
    <rect
       style="fill:#000000;stroke-width:0.198644"
       id="rect117-6-3-7-7-9-3-1"
       width="21.166666"
       height="21.166666"
       x="-148.16663"
       y="232.83331"
       transform="rotate(-90)" />
    <rect
       style="fill:#000000;stroke-width:0.198644"
       id="rect117-6-3-2-8-5-64-1"
       width="21.166666"
       height="21.166666"
       x="84.666649"
       y="-253.99995"
       transform="rotate(90)" />
    <rect
       style="fill:#000000;stroke-width:0.198644"
       id="rect117-6-3-7-3-6-9-0"
       width="21.166666"
       height="21.166666"
       x="63.499985"
       y="-211.66663"
       transform="rotate(90)" />
    <rect
       style="fill:#000000;stroke-width:0.198644"
       id="rect117-6-3-2-0-20-2-3-3"
       width="21.166666"
       height="21.166666"
       x="63.499985"
       y="-190.49998"
       transform="rotate(90)" />
    <rect
       style="fill:#000000;stroke-width:0.198644"
       id="rect117-6-3-7-9-6-9-6-4"
       width="21.166666"
       height="21.166666"
       x="63.499985"
       y="-169.33333"
       transform="rotate(90)" />
    <rect
       style="fill:#000000;stroke-width:0.198644"
       id="rect117-6-3-7-3-6-7-2-0"
       width="21.166666"
       height="21.166666"
       x="63.499985"
       y="-253.99997"
       transform="rotate(90)" />
    <rect
       style="fill:#000000;stroke-width:0.198644"
       id="rect117-6-3-2-0-20-2-0-6-39"
       width="21.166666"
       height="21.166666"
       x="63.499985"
       y="-232.83331"
       transform="rotate(90)" />
    <rect
       style="fill:#000000;stroke-width:0.198644"
       id="rect117-6-3-7-3-6-9-3-1"
       width="21.166666"
       height="21.166666"
       x="190.49995"
       y="-211.66664"
       transform="rotate(90)" />
    <rect
       style="fill:#000000;stroke-width:0.198644"
       id="rect117-6-3-2-0-20-2-3-6-9"
       width="21.166666"
       height="21.166666"
       x="190.49995"
       y="-190.5"
       transform="rotate(90)" />
    <rect
       style="fill:#000000;stroke-width:0.198644"
       id="rect117-6-3-7-9-6-9-6-1-6"
       width="21.166666"
       height="21.166666"
       x="190.49995"
       y="-169.33336"
       transform="rotate(90)" />
    <rect
       style="fill:#000000;stroke-width:0.198644"
       id="rect117-6-3-7-3-6-7-2-9-9"
       width="21.166666"
       height="21.166666"
       x="190.49995"
       y="-254"
       transform="rotate(90)" />
    <rect
       style="fill:#000000;stroke-width:0.198644"
       id="rect117-6-3-2-0-20-2-0-6-3-3"
       width="21.166666"
       height="21.166666"
       x="190.49995"
       y="-232.83333"
       transform="rotate(90)" />
    <rect
       style="fill:#000000;stroke-width:0.198644"
       id="rect117-6-3-7-9-3-5-2-3"
       width="21.166666"
       height="21.166666"
       x="-169.33328"
       y="211.66666"
       transform="rotate(-90)" />
  </g>
</svg>
